<?xml version="1.0" encoding="utf-8"?>
<!-- Generator: Adobe Illustrator 19.2.1, SVG Export Plug-In . SVG Version: 6.00 Build 0)  -->
<svg version="1.1" id="Слой_1" xmlns="http://www.w3.org/2000/svg" xmlns:xlink="http://www.w3.org/1999/xlink" x="0px" y="0px"
	 viewBox="0 0 89.6 90.6" style="enable-background:new 0 0 89.6 90.6;" xml:space="preserve">
<style type="text/css">
	.st0{fill:none;stroke:#4D6D7A;stroke-width:1.624;stroke-linejoin:round;stroke-miterlimit:10;}
	.st1{fill:#4D6D7A;}
	.st2{fill:none;stroke:#4D6D7A;stroke-width:1.64;stroke-linecap:round;stroke-linejoin:round;stroke-miterlimit:10;}
</style>
<g>
	<g>
		<path class="st0" d="M29.1,39.4l22.1,22.1c0,0,2.1,2,5.5-0.1l24.8-18.5c0,0,12.2-10.7,5.2-20.9L69.1,4.5c0,0-8.3-8.8-17.3,1.5
			l-4.3,7.1L51.8,6c0,0-9.3-1.3-12.6,5.6C35.9,18.5,29.1,34,29.1,34S27.3,37.6,29.1,39.4z"/>
		<polyline class="st0" points="51.8,62 49.6,64.1 26.6,41.1 28.7,39 		"/>
		<path class="st0" d="M39.2,80.6c-0.4,0.4-1.2,0.4-1.6,0L10.2,53.3c-0.4-0.4-0.4-1.2,0-1.6L22.9,39c0.4-0.4,1.2-0.4,1.6,0
			l27.4,27.4c0.4,0.4,0.4,1.2,0,1.6L39.2,80.6z"/>
		<line class="st0" x1="7.8" y1="59.8" x2="0.7" y2="66.8"/>
		<line class="st0" x1="13.6" y1="65.6" x2="2.1" y2="77.2"/>
		<line class="st0" x1="25.3" y1="77.3" x2="13.7" y2="88.8"/>
		<line class="st0" x1="19.3" y1="71.3" x2="0.8" y2="89.9"/>
		<line class="st0" x1="30.9" y1="82.9" x2="23.8" y2="90"/>
	</g>
	<g>
		<path class="st1" d="M58.4,34.1l-2.5,1.3c-0.2,0.1-0.4-0.1-0.3-0.2l0.5-2.8c0-0.1,0-0.2-0.1-0.2l-2-2c-0.1-0.1-0.1-0.4,0.1-0.4
			l2.8-0.4c0.1,0,0.1-0.1,0.2-0.1l1.3-2.5c0.1-0.2,0.3-0.2,0.4,0l1.3,2.5c0,0.1,0.1,0.1,0.2,0.1l2.8,0.4c0.2,0,0.3,0.3,0.1,0.4l-2,2
			C61,32.2,61,32.3,61,32.4l0.5,2.8c0,0.2-0.2,0.3-0.3,0.2l-2.5-1.3C58.6,34.1,58.5,34.1,58.4,34.1"/>
		<circle class="st2" cx="58.5" cy="31.7" r="7.8"/>
	</g>
</g>
</svg>
