<?xml version="1.0" encoding="utf-8"?>
<!-- Generator: Adobe Illustrator 22.0.1, SVG Export Plug-In . SVG Version: 6.00 Build 0)  -->
<svg version="1.1" id="Слой_1" xmlns="http://www.w3.org/2000/svg" xmlns:xlink="http://www.w3.org/1999/xlink" x="0px" y="0px"
	 viewBox="0 0 2500 1038" style="enable-background:new 0 0 2500 1038;" xml:space="preserve">
<style type="text/css">
	.st0{fill:#FFFFFF;}
</style>
<g>
	<path class="st0" d="M1247.3,2.7c16.5-5.7,34.6-0.9,49.8,6.5c10.6,6.8,21.2,13.7,33,18.2c0.9,1.7,2.8,5.1,3.7,6.7
		c-0.5,1.1-1.4,3.4-1.9,4.6c8.5,19.2,13.9,42,5.7,62.2c-5.6,6.8-15.3,7.9-23.2,10.5c0,9.8,1.5,19.4,2.4,29.1
		c16.8,2.7,31.1-9,47.7-7.8c2.2-9.3,4-18.8,7-27.9c3.4,6.1,3.6,13,3.6,19.8c4.4,1.2,8.8,2.4,13.2,3.4c0,1.7,0.1,5,0.1,6.7
		c73,0.4,145.9-0.3,218.9,0.4c-0.2,2.5-0.5,7.5-0.7,10c1.9,0,5.7,0,7.6,0c-0.1-13.3,0-26.6,0-39.9c1.9-0.1,5.5-0.2,7.3-0.2
		c0,10.4,0.1,20.9,0.2,31.3c1.6,2,4.8,5.9,6.4,7.8c1.2-1.4,3.6-4.2,4.8-5.6c5.6,5.2,2.4,12.3,2.1,18.7c20.4-0.2,41.1,1.2,61.4-0.5
		c1.5-1.1,4.6-3.3,6.1-4.5c2.8,1.1,5.6,2.2,8.4,3.3c9.2-0.2,18.4-0.3,27.6-0.3c-0.2,4.8-0.3,9.5-0.5,14.3
		c-11.9-0.2-23.8-0.4-35.4,1.6c-7.5-6.5-17.7-4.4-26.8-4.7c-14,0.7-28.4-1.8-42,2.6c-8.1,2.2-16.9,1.7-24-2.9
		c-1.7,4.2,0.9,13.7-6.2,13.4c-28.2,0.4-56.3-0.3-84.4,0.2c-3.8,2-7.7,4-11.6,5.8c-4.1,12.1-15.7,20.2-25.6,27.6
		c-1.2,18.6,6.1,36,9,54.1c-5.6,1.6-11.1,3.2-16.6,5c-7.9,18.6-3,43.9-21.3,56.9c-14,8.1-23.2,25.8-42,23c9.6,8-2.6,5.5-1.3-0.9
		c-34.1-3-62.8-23-92.4-38.2c-1.4,8.3-3.6,16.5-5.8,24.7c11.2,2.1,20.5,10.4,22.5,21.9c3.6,25.1-3.6,50.1-3.5,75.3
		c0.8,14.8-5.6,28.4-13.5,40.4c-6.9,7.8-17.8-0.2-26.2-1.4c-1.9,3.7-3.7,7.3-5.6,11c2.4,9.9,3.4,20.1,6.7,29.8
		c18.5,20.5,35.4,42.7,48.4,67.2c13.3,27.7,25.2,56.1,35.6,85.1c1,5.6,6.3,7.6,11,9.7c0.6,5.8,1.2,11.6,1.8,17.5
		c1.8,2.6,3.7,5.3,5.6,8c1.1,35.8-3.3,71.4-8.8,106.7c-3.4,15.9,5.9,31.5,2.1,47.5c0.4,8.2-5.2,14.4-7.9,21.7
		c-0.5,16.9-1.3,34.1,0.5,51c1.3,12.4,11.8,20.4,18.9,29.6c7.8,8.2,14.3,19.3,26,22.2c11.1,3.3,21.6,8.1,31.4,14.4
		c3,7.4,2.4,15.2,1,22.8c-21.3,3.9-43,2-64.4,2.3c-16.6,0.9-31.3-8-47.4-9.9c-15.6-0.4-34.5,7.3-46.5-6.6
		c5.1-19.3,5.5-40.1,14.8-58.1c3-20.4-2.7-41.1-1.5-61.7c-1.8-1.5-5.3-4.5-7.1-6c1.3-13.5-5.4-25.4-7.6-38.3
		c-1.4-18.8-3.2-37.6-5.3-56.3c-1.7-9.1,3-17.4,9.4-23.5c0.6-10.5,2-20.9,3-31.4c-1.6-6.8-7-11.8-10.4-17.6
		c-11.6,4.9-27.4,2.6-34.3-8.8c-16.4-24.4-32.8-48.9-49.4-73.2c-6.5-0.4-13.4,0.3-19.5-2.4c-7-7.2-10.7-16.8-15.2-25.6
		c-6.4,7.2-6,18.3-13.6,24.9c-16.1,15.5-20.4,38.2-28.8,58c-6.5,12.8-2.8,28.3-10,40.8c-3.8,6.7-13.5,8.1-16,15.8
		c-3.3,8.3-7.3,16.9-15.1,22c-8.5,5.5-10.7,16.1-14.5,24.8c-3.4,8,1.7,16.4,0.5,24.7c-5.4,26.2-22,48-29,73.6
		c-3.2,11.5-7.8,24.5-21.2,27c-15.3,27.3-23.7,60.7-15.1,91.4c5.3,9.6,5,20.5,3.4,31.1c-24.3,1.9-49.2,5.2-73-1.6
		c-5.6-11.1-4.8-24.1-3.6-36.1c7.4-31.5,17.1-62.4,23.1-94.1c-7.5-6.6-5.7-16.8-5.6-25.7c-0.3-16.6,11-29.9,18.9-43.5
		c2.9-14,1.6-29,8.8-41.8c8.5-16,15.7-33.4,28.8-46.3c2.5-11.4,10.9-20.1,14.3-31.1c3.6-9.7-2.7-19.6-1.4-29.5
		c3.1-30.2,8.6-60,13.4-89.9c-9-7.5-6.1-19.4-9-29.6c1.4-4,3.2-7.8,5.3-11.5c-2.2-2.1-4.5-4.2-6.7-6.2c2.2-10.6,1.6-29.7,17.9-26.2
		c1-35.2-11.2-69.3-7.1-104.6c2.2,2.5,4.3,5.1,6.5,7.7l-1.2-11.9c6.8-3.6,14.1-6.4,21.7-7.8c-12.4-1.6-24.5-4.8-36.6-7.6
		c-2.9-7.7-1.3-16-0.2-23.9c4.7-26.7,6.5-53.8,7.4-80.8c13.7-4.8,28.9-0.7,42.3-7.1c-4.2-33.8-5.2-69.2,6.8-101.7
		c9.7-27.6,28.2-54.3,57.1-64c13.6-3.3,30.8-6.9,40.4,6.3c2.6-2.4,5.3-4.9,7.9-7.4C1171,75.6,1197.3,11.7,1247.3,2.7 M1423.5,192.4
		c-5.8,3.6-11.5,7.6-5.4,14.1c-3,1.8-6,3.5-9,5.1c-4.7,3.6-15.3,5.7-14.1,13c5.3,8.5,9.9,17.5,13.6,26.7c11.6-9.5,20.8-22.3,27-35.8
		c1.3-1.3,4-4,5.3-5.3c-0.6-6.2-2-12.3-4.4-18C1432.2,192.3,1427.8,192.4,1423.5,192.4L1423.5,192.4z"/>
	<path class="st0" d="M1529.9,517.2c16.6-21,43.5-32.6,70.1-32.1c81,0.1,162.1,0,243.1,0c39.5,0.8,78,31.7,82.6,71.8
		c-112.1-0.4-224.2,0.3-336.3-0.4c-0.1,75-0.3,150.1,0,225.1c86.1-0.1,172.1-0.3,258.2,0.1c-0.3-26.9,0.1-53.8-0.3-80.6
		c-42.6,0.2-85.1,0.3-127.7,0c-34.1-1.3-59.5-30.8-67.2-62.2c91.5-0.3,182.9-0.4,274.4,0c-0.4,46,0.2,92-0.3,137.9
		c-1.1,38.7-34.4,72.8-72.6,76.7c-88.3,0-176.6,0-264.8,0c-26.4-0.2-49.7-16.8-64.6-37.6c-10.2-14.7-12.4-32.9-13.9-50.2
		c-0.1-61.7,0.1-123.4-0.1-185.1C1510.9,558.2,1514.8,534.6,1529.9,517.2z M2065.1,487.5c9.1-2.5,18.6-2.6,28-2.5
		c74.9,0.2,149.8-0.3,224.7,0.2c42.4,1.8,79.7,38.5,81.4,81c0.1,68.8,0.1,137.7,0,206.5c-0.8,42.2-38.1,81.5-81,80.8
		c-82.4-0.4-164.7,0.3-247.1-0.3c-41.1-4.6-72.6-43.8-72.9-84.4c-0.6-62.8,0.1-125.6-0.3-188.4c-0.3-18.5,3-37.5,12.8-53.5
		C2022.3,507,2042.9,493,2065.1,487.5 M2078.1,554.5c0.1,77.4-0.3,154.9,0.2,232.3c80.4,0.2,160.9,0,241.3,0.1
		c0.2-77.5,0-155,0.1-232.5C2239.2,554.4,2158.6,554.2,2078.1,554.5L2078.1,554.5z M0.1,573c1.7-42,36.9-81.4,79.6-83
		c79.9-0.1,159.9-0.1,239.8,0c43.2-0.4,79.1,38.6,82.4,80.4c-5.8,0.5-11.5,0.8-17.3,0.9c-95.2-0.1-190.3,0-285.4-0.1
		c0,67.6-0.4,135.2,0.2,202.9c101-0.1,202-0.2,303,0c-2.9,43.3-39.4,81.8-83.4,83.5c-72.4,1-144.8,0-217.2,0.5
		c-18,0.6-36.6-1.6-52.9-9.9c-28-14.3-47.8-43.5-48.8-75.2C0,706.3-0.1,639.6,0.1,573L0.1,573z M478.9,540.1
		c13.3-29.1,43.8-50.6,76.2-50.2c79.8,0.1,159.7,0,239.5,0c41.7,0.3,78.4,36.7,81.3,77.9c-105.3,1.5-210.6,0.2-315.9,0.6
		c-0.5,21.2-0.3,42.4-0.3,63.6c78.3,0.3,156.6,0.1,234.9,0.1c23.2,0.9,47.6,8.3,63.4,26.3c17.8,15.9,25.3,40.1,25.9,63.4
		c0.4,23.3,0.4,46.6-3.4,69.7c-8.6,37.3-44.3,65.1-82.3,66.3c-76.1,0.7-152.3,0.1-228.4,0.4c-18,0.4-36.5-2.2-52.5-11
		c-25.2-13.2-43.4-39.7-45.9-68.1c107.2,0.5,214.4,0.3,321.5,0.1c0.3-22.6,0.1-45.1,0.1-67.7c-79.3-0.5-158.6-0.1-238-0.2
		c-45.6,0.4-85.9-41.5-84.7-87C472,596.2,465.5,566.1,478.9,540.1L478.9,540.1z M2424,497.4c10.1-0.3,20.3-0.7,30.3,0.9
		c-4.7,1.2-9.4,1.8-14.2,1.9c-0.6,10.9-0.7,21.8-0.5,32.8c-1.1,0-3.1,0-4.1,0c0.1-11.2,0.2-22.4,0-33.6c-2.8,0.2-8.5,0.7-11.2,0.9
		L2424,497.4L2424,497.4z M2460,497c2.1,0.1,6.5,0.3,8.7,0.4c3.1,9.8,6.7,19.5,11.2,28.8c4.2-9.4,7-19.4,11.6-28.5
		c2-0.3,6.1-0.9,8.1-1.2c-1.1,13.4,3.5,28.1-3.7,40.3c-1.3-11.8-0.8-23.7-1.5-35.6c-5.5,11.1-8.1,23.5-15.3,33.7
		c-5.5-10.5-7.9-22.5-14.5-32.4c-0.4,10.6-0.2,21.2-0.4,31.8l-3.9-0.4C2460.3,521.6,2460.1,509.3,2460,497L2460,497z"/>
</g>
</svg>
