<?xml version="1.0" encoding="utf-8"?>
<!-- Generator: Adobe Illustrator 22.0.1, SVG Export Plug-In . SVG Version: 6.00 Build 0)  -->
<svg version="1.1" id="Слой_1" xmlns="http://www.w3.org/2000/svg" xmlns:xlink="http://www.w3.org/1999/xlink" x="0px" y="0px"
	 viewBox="0 0 67.1 90" style="enable-background:new 0 0 67.1 90;" xml:space="preserve">
<style type="text/css">
	
		.st0{clip-path:url(#SVGID_2_);fill:none;stroke:#000000;stroke-width:1.64;stroke-linecap:round;stroke-linejoin:round;stroke-miterlimit:10;}
	
		.st1{clip-path:url(#SVGID_4_);fill:none;stroke:#000000;stroke-width:1.64;stroke-linecap:round;stroke-linejoin:round;stroke-miterlimit:10;}
	.st2{clip-path:url(#SVGID_6_);}
	.st3{clip-path:url(#SVGID_8_);}
	.st4{clip-path:url(#SVGID_10_);}
	.st5{clip-path:url(#SVGID_12_);}
	
		.st6{clip-path:url(#SVGID_14_);fill:none;stroke:#000000;stroke-width:1.64;stroke-linecap:round;stroke-linejoin:round;stroke-miterlimit:10;}
	.st7{clip-path:url(#SVGID_16_);fill:none;stroke:#000000;stroke-width:1.64;stroke-linejoin:round;stroke-miterlimit:10;}
	.st8{clip-path:url(#SVGID_18_);fill:none;stroke:#000000;stroke-width:1.64;stroke-linejoin:round;stroke-miterlimit:10;}
	
		.st9{clip-path:url(#SVGID_20_);fill:none;stroke:#000000;stroke-width:1.64;stroke-linecap:round;stroke-linejoin:round;stroke-miterlimit:10;}
	
		.st10{clip-path:url(#SVGID_22_);fill:none;stroke:#000000;stroke-width:1.64;stroke-linecap:round;stroke-linejoin:round;stroke-miterlimit:10;}
	
		.st11{clip-path:url(#SVGID_24_);fill:none;stroke:#000000;stroke-width:1.64;stroke-linecap:round;stroke-linejoin:round;stroke-miterlimit:10;}
	.st12{clip-path:url(#SVGID_26_);fill:none;stroke:#000000;stroke-width:1.64;stroke-linejoin:round;stroke-miterlimit:10;}
	
		.st13{clip-path:url(#SVGID_28_);fill:none;stroke:#000000;stroke-width:1.64;stroke-linecap:round;stroke-linejoin:round;stroke-miterlimit:10;}
	
		.st14{clip-path:url(#SVGID_30_);fill:none;stroke:#000000;stroke-width:1.64;stroke-linecap:round;stroke-linejoin:round;stroke-miterlimit:10;}
	
		.st15{clip-path:url(#SVGID_32_);fill:none;stroke:#000000;stroke-width:1.64;stroke-linecap:round;stroke-linejoin:round;stroke-miterlimit:10;}
	
		.st16{clip-path:url(#SVGID_34_);fill:none;stroke:#000000;stroke-width:1.64;stroke-linecap:round;stroke-linejoin:round;stroke-miterlimit:10;}
	.st17{clip-path:url(#SVGID_36_);}
	
		.st18{clip-path:url(#SVGID_38_);fill:none;stroke:#000000;stroke-width:1.64;stroke-linecap:round;stroke-linejoin:round;stroke-miterlimit:10;}
	
		.st19{clip-path:url(#SVGID_40_);fill:none;stroke:#000000;stroke-width:1.64;stroke-linecap:round;stroke-linejoin:round;stroke-miterlimit:10;}
	.st20{clip-path:url(#SVGID_42_);fill:none;stroke:#000000;stroke-width:1.64;stroke-linecap:round;stroke-miterlimit:10;}
	.st21{clip-path:url(#SVGID_44_);fill:none;stroke:#000000;stroke-width:1.64;stroke-linecap:round;stroke-miterlimit:10;}
	
		.st22{clip-path:url(#SVGID_46_);fill:none;stroke:#000000;stroke-width:1.64;stroke-linecap:round;stroke-linejoin:round;stroke-miterlimit:10;}
	
		.st23{clip-path:url(#SVGID_48_);fill:none;stroke:#000000;stroke-width:1.64;stroke-linecap:round;stroke-linejoin:round;stroke-miterlimit:10;}
	
		.st24{clip-path:url(#SVGID_50_);fill:none;stroke:#000000;stroke-width:1.64;stroke-linecap:round;stroke-linejoin:round;stroke-miterlimit:10;}
	.st25{clip-path:url(#SVGID_52_);}
	
		.st26{clip-path:url(#SVGID_54_);fill:none;stroke:#000000;stroke-width:1.64;stroke-linecap:round;stroke-linejoin:round;stroke-miterlimit:10;}
	
		.st27{clip-path:url(#SVGID_56_);fill:none;stroke:#000000;stroke-width:1.64;stroke-linecap:round;stroke-linejoin:round;stroke-miterlimit:10;}
	.st28{clip-path:url(#SVGID_60_);fill:none;stroke:#000000;stroke-width:1.64;stroke-miterlimit:10;}
	.st29{clip-path:url(#SVGID_62_);fill:none;stroke:#000000;stroke-width:1.64;stroke-linecap:round;stroke-miterlimit:10;}
	
		.st30{clip-path:url(#SVGID_64_);fill:none;stroke:#000000;stroke-width:1.64;stroke-linecap:round;stroke-linejoin:round;stroke-miterlimit:10;}
	
		.st31{clip-path:url(#SVGID_66_);fill:none;stroke:#000000;stroke-width:1.64;stroke-linecap:round;stroke-linejoin:round;stroke-miterlimit:10;}
	.st32{clip-path:url(#SVGID_68_);fill:none;stroke:#000000;stroke-width:1.64;stroke-miterlimit:10;}
	.st33{clip-path:url(#SVGID_70_);fill:none;stroke:#000000;stroke-width:1.64;stroke-miterlimit:10;}
	.st34{clip-path:url(#SVGID_72_);fill:none;stroke:#000000;stroke-width:1.64;stroke-miterlimit:10;}
	.st35{clip-path:url(#SVGID_74_);fill:none;stroke:#000000;stroke-width:1.64;stroke-miterlimit:10;}
	.st36{clip-path:url(#SVGID_76_);fill:none;stroke:#000000;stroke-width:1.64;stroke-miterlimit:10;}
	.st37{clip-path:url(#SVGID_78_);fill:none;stroke:#000000;stroke-width:1.64;stroke-miterlimit:10;}
	.st38{clip-path:url(#SVGID_80_);fill:none;stroke:#000000;stroke-width:1.64;stroke-miterlimit:10;}
	.st39{clip-path:url(#SVGID_82_);fill:none;stroke:#000000;stroke-width:1.64;stroke-miterlimit:10;}
	.st40{clip-path:url(#SVGID_84_);fill:none;stroke:#000000;stroke-width:1.64;stroke-miterlimit:10;}
	.st41{clip-path:url(#SVGID_86_);fill:none;stroke:#000000;stroke-width:1.64;stroke-miterlimit:10;}
	.st42{clip-path:url(#SVGID_88_);fill:none;stroke:#000000;stroke-width:1.64;stroke-miterlimit:10;}
	.st43{clip-path:url(#SVGID_90_);fill:none;stroke:#000000;stroke-width:1.64;stroke-miterlimit:10;}
	.st44{clip-path:url(#SVGID_92_);fill:none;stroke:#000000;stroke-width:1.64;stroke-miterlimit:10;}
	.st45{clip-path:url(#SVGID_94_);fill:none;stroke:#000000;stroke-width:1.64;stroke-miterlimit:10;}
	
		.st46{clip-path:url(#SVGID_96_);fill:none;stroke:#000000;stroke-width:1.64;stroke-linecap:round;stroke-linejoin:round;stroke-miterlimit:10;}
	
		.st47{clip-path:url(#SVGID_98_);fill:none;stroke:#000000;stroke-width:1.64;stroke-linecap:round;stroke-linejoin:round;stroke-miterlimit:10;}
	.st48{clip-path:url(#SVGID_100_);}
	
		.st49{clip-path:url(#SVGID_102_);fill:none;stroke:#000000;stroke-width:1.64;stroke-linecap:round;stroke-linejoin:round;stroke-miterlimit:10;}
	
		.st50{clip-path:url(#SVGID_104_);fill:none;stroke:#000000;stroke-width:1.64;stroke-linecap:round;stroke-linejoin:round;stroke-miterlimit:10;}
	.st51{clip-path:url(#SVGID_106_);}
	
		.st52{clip-path:url(#SVGID_108_);fill:none;stroke:#000000;stroke-width:1.64;stroke-linecap:round;stroke-linejoin:round;stroke-miterlimit:10;}
	
		.st53{clip-path:url(#SVGID_110_);fill:none;stroke:#000000;stroke-width:1.64;stroke-linecap:round;stroke-linejoin:round;stroke-miterlimit:10;}
	
		.st54{clip-path:url(#SVGID_112_);fill:none;stroke:#000000;stroke-width:1.64;stroke-linecap:round;stroke-linejoin:round;stroke-miterlimit:10;}
</style>
<g>
	<g>
		<g>
			<defs>
				<rect id="SVGID_1_" x="-10.9" y="-8.3" width="89" height="107.7"/>
			</defs>
			<clipPath id="SVGID_2_">
				<use xlink:href="#SVGID_1_"  style="overflow:visible;"/>
			</clipPath>
			<path class="st0" d="M37-276.7c2.9-1.9,6.7-1.1,8.5,1.8c1.9,2.9,1,6.8-1.8,8.7c-2.1,1.4-4.7,1.3-6.6,0.1"/>
		</g>
		<g>
			<defs>
				<rect id="SVGID_3_" x="-10.9" y="-8.3" width="89" height="107.7"/>
			</defs>
			<clipPath id="SVGID_4_">
				<use xlink:href="#SVGID_3_"  style="overflow:visible;"/>
			</clipPath>
			<path class="st1" d="M33.5-263.7c0.3,2.3-0.7,4.7-2.8,6.1c-2.9,1.9-6.7,1.1-8.5-1.8c-1.9-2.9-1-6.8,1.8-8.7l13.1-8.6"/>
		</g>
		<g>
			<defs>
				<rect id="SVGID_5_" x="-10.9" y="-8.3" width="89" height="107.7"/>
			</defs>
			<clipPath id="SVGID_6_">
				<use xlink:href="#SVGID_5_"  style="overflow:visible;"/>
			</clipPath>
			<path class="st2" d="M40-273.8c0.3,0.4,0.2,1-0.3,1.3c-0.4,0.3-1,0.2-1.2-0.3c-0.3-0.4-0.2-1,0.3-1.3
				C39.1-274.3,39.7-274.2,40-273.8"/>
		</g>
		<g>
			<defs>
				<rect id="SVGID_7_" x="-10.9" y="-8.3" width="89" height="107.7"/>
			</defs>
			<clipPath id="SVGID_8_">
				<use xlink:href="#SVGID_7_"  style="overflow:visible;"/>
			</clipPath>
			<path class="st3" d="M42.2-270.3c0.3,0.4,0.2,1-0.3,1.3c-0.4,0.3-1,0.2-1.2-0.3c-0.3-0.4-0.2-1,0.3-1.3
				C41.4-270.8,41.9-270.7,42.2-270.3"/>
		</g>
		<g>
			<defs>
				<rect id="SVGID_9_" x="-10.9" y="-8.3" width="89" height="107.7"/>
			</defs>
			<clipPath id="SVGID_10_">
				<use xlink:href="#SVGID_9_"  style="overflow:visible;"/>
			</clipPath>
			<path class="st4" d="M42.5-271.9c-0.4,0.3-1,0.2-1.2-0.3c-0.3-0.4-0.2-1,0.3-1.3c0.4-0.3,1-0.2,1.2,0.3
				C43.1-272.8,43-272.2,42.5-271.9"/>
		</g>
		<g>
			<defs>
				<rect id="SVGID_11_" x="-10.9" y="-8.3" width="89" height="107.7"/>
			</defs>
			<clipPath id="SVGID_12_">
				<use xlink:href="#SVGID_11_"  style="overflow:visible;"/>
			</clipPath>
			<path class="st5" d="M39.1-269.6c-0.4,0.3-1,0.2-1.2-0.3c-0.3-0.4-0.2-1,0.3-1.3c0.4-0.3,1-0.2,1.2,0.3
				C39.6-270.5,39.5-269.9,39.1-269.6"/>
		</g>
		<g>
			<defs>
				<rect id="SVGID_13_" x="-10.9" y="-8.3" width="89" height="107.7"/>
			</defs>
			<clipPath id="SVGID_14_">
				<use xlink:href="#SVGID_13_"  style="overflow:visible;"/>
			</clipPath>
			<path class="st6" d="M28.5-275c-2.2-3.5-5-0.6-6.7-4.7"/>
		</g>
		<g>
			<defs>
				<rect id="SVGID_15_" x="-10.9" y="-8.3" width="89" height="107.7"/>
			</defs>
			<clipPath id="SVGID_16_">
				<use xlink:href="#SVGID_15_"  style="overflow:visible;"/>
			</clipPath>
			<path class="st7" d="M12.8-204.9H-17v-27.5c0-1.4,1.1-2.6,2.5-2.6h24.8c1.4,0,2.5,1.1,2.5,2.6C12.8-232.4,12.8-204.9,12.8-204.9z
				"/>
		</g>
		<g>
			<defs>
				<rect id="SVGID_17_" x="-10.9" y="-8.3" width="89" height="107.7"/>
			</defs>
			<clipPath id="SVGID_18_">
				<use xlink:href="#SVGID_17_"  style="overflow:visible;"/>
			</clipPath>
			<path class="st8" d="M49.2-204.9H18.3v-43.9c0-1.4,1.1-2.5,2.5-2.5h25.9c1.4,0,2.5,1.1,2.5,2.5C49.2-248.8,49.2-204.9,49.2-204.9
				z"/>
		</g>
		<g>
			<defs>
				<rect id="SVGID_19_" x="-10.9" y="-8.3" width="89" height="107.7"/>
			</defs>
			<clipPath id="SVGID_20_">
				<use xlink:href="#SVGID_19_"  style="overflow:visible;"/>
			</clipPath>
			<line class="st9" x1="33.7" y1="-222.4" x2="33.7" y2="-211.4"/>
		</g>
		<g>
			<defs>
				<rect id="SVGID_21_" x="-10.9" y="-8.3" width="89" height="107.7"/>
			</defs>
			<clipPath id="SVGID_22_">
				<use xlink:href="#SVGID_21_"  style="overflow:visible;"/>
			</clipPath>
			<line class="st10" x1="-4.8" y1="-222.4" x2="-4.8" y2="-211.4"/>
		</g>
		<g>
			<defs>
				<rect id="SVGID_23_" x="-10.9" y="-8.3" width="89" height="107.7"/>
			</defs>
			<clipPath id="SVGID_24_">
				<use xlink:href="#SVGID_23_"  style="overflow:visible;"/>
			</clipPath>
			<line class="st11" x1="0.5" y1="-222.4" x2="0.5" y2="-211.4"/>
		</g>
		<g>
			<defs>
				<rect id="SVGID_25_" x="-10.9" y="-8.3" width="89" height="107.7"/>
			</defs>
			<clipPath id="SVGID_26_">
				<use xlink:href="#SVGID_25_"  style="overflow:visible;"/>
			</clipPath>
			<path class="st12" d="M84.2-204.9H54.4v-21.4c0-1.4,1.1-2.5,2.5-2.5h24.8c1.4,0,2.5,1.1,2.5,2.5V-204.9z"/>
		</g>
		<g>
			<defs>
				<rect id="SVGID_27_" x="-10.9" y="-8.3" width="89" height="107.7"/>
			</defs>
			<clipPath id="SVGID_28_">
				<use xlink:href="#SVGID_27_"  style="overflow:visible;"/>
			</clipPath>
			<line class="st13" x1="64.5" y1="-222.4" x2="64.5" y2="-211.4"/>
		</g>
		<g>
			<defs>
				<rect id="SVGID_29_" x="-10.9" y="-8.3" width="89" height="107.7"/>
			</defs>
			<clipPath id="SVGID_30_">
				<use xlink:href="#SVGID_29_"  style="overflow:visible;"/>
			</clipPath>
			<line class="st14" x1="69.3" y1="-222.4" x2="69.3" y2="-211.4"/>
		</g>
		<g>
			<defs>
				<rect id="SVGID_31_" x="-10.9" y="-8.3" width="89" height="107.7"/>
			</defs>
			<clipPath id="SVGID_32_">
				<use xlink:href="#SVGID_31_"  style="overflow:visible;"/>
			</clipPath>
			<line class="st15" x1="74.1" y1="-222.4" x2="74.1" y2="-211.4"/>
		</g>
		<g>
			<defs>
				<rect id="SVGID_33_" x="-10.9" y="-8.3" width="89" height="107.7"/>
			</defs>
			<clipPath id="SVGID_34_">
				<use xlink:href="#SVGID_33_"  style="overflow:visible;"/>
			</clipPath>
			<line class="st16" x1="-22" y1="-199.6" x2="89.2" y2="-199.6"/>
		</g>
		<g>
			<defs>
				<rect id="SVGID_35_" x="-10.9" y="-8.3" width="89" height="107.7"/>
			</defs>
			<clipPath id="SVGID_36_">
				<use xlink:href="#SVGID_35_"  style="overflow:visible;"/>
			</clipPath>
			<path class="st17" d="M33.6-236.7l-2.4,1.3c-0.2,0.1-0.4-0.1-0.3-0.2l0.5-2.7c0-0.1,0-0.1-0.1-0.2l-1.9-1.9
				c-0.1-0.1-0.1-0.4,0.1-0.4l2.6-0.4c0.1,0,0.1-0.1,0.2-0.1l1.2-2.4c0.1-0.2,0.3-0.2,0.4,0l1.2,2.4c0,0.1,0.1,0.1,0.2,0.1l2.6,0.4
				c0.2,0,0.3,0.3,0.1,0.4l-1.9,1.9c-0.1,0.1-0.1,0.1-0.1,0.2l0.5,2.7c0,0.2-0.2,0.3-0.3,0.2l-2.4-1.3
				C33.7-236.8,33.7-236.8,33.6-236.7"/>
		</g>
		<g>
			<defs>
				<rect id="SVGID_37_" x="-10.9" y="-8.3" width="89" height="107.7"/>
			</defs>
			<clipPath id="SVGID_38_">
				<use xlink:href="#SVGID_37_"  style="overflow:visible;"/>
			</clipPath>
			<ellipse class="st18" cx="33.7" cy="-239.1" rx="7.3" ry="7.4"/>
		</g>
		<g>
			<defs>
				<rect id="SVGID_39_" x="-10.9" y="-8.3" width="89" height="107.7"/>
			</defs>
			<clipPath id="SVGID_40_">
				<use xlink:href="#SVGID_39_"  style="overflow:visible;"/>
			</clipPath>
			<path class="st19" d="M26.8,48.5c-0.8,0-1.8-0.6-2.2-1.3C22,42.2,13.3,24.1,13.3,4c-0.1-1.6,10.1-3,20.3-3S54,2.4,54,4
				c0,20.1-8.7,38.2-11.3,43.2c-0.4,0.7-1.4,1.3-2.2,1.3H26.8z"/>
		</g>
		<g>
			<defs>
				<rect id="SVGID_41_" x="-10.9" y="-8.3" width="89" height="107.7"/>
			</defs>
			<clipPath id="SVGID_42_">
				<use xlink:href="#SVGID_41_"  style="overflow:visible;"/>
			</clipPath>
			<path class="st20" d="M57.2,10.5h7c1.7,0,2.1,1.8,1.6,3.9c-0.5,2.4-1.7,5.9-3.3,9.6c-3.7,8.9-8.5,14.4-16,14.4"/>
		</g>
		<g>
			<defs>
				<rect id="SVGID_43_" x="-10.9" y="-8.3" width="89" height="107.7"/>
			</defs>
			<clipPath id="SVGID_44_">
				<use xlink:href="#SVGID_43_"  style="overflow:visible;"/>
			</clipPath>
			<path class="st21" d="M9.9,10.5h-7c-1.7,0-2.1,1.8-1.6,3.9C1.8,16.8,3,20.3,4.6,24c3.7,8.9,8.5,14.4,16,14.4"/>
		</g>
		<g>
			<defs>
				<rect id="SVGID_45_" x="-10.9" y="-8.3" width="89" height="107.7"/>
			</defs>
			<clipPath id="SVGID_46_">
				<use xlink:href="#SVGID_45_"  style="overflow:visible;"/>
			</clipPath>
			<path class="st22" d="M49.4,83.9H17.8V71c0-1.4,1.1-2.6,2.5-2.6h26.6c1.4,0,2.5,1.1,2.5,2.6V83.9z"/>
		</g>
		<g>
			<defs>
				<rect id="SVGID_47_" x="-10.9" y="-8.3" width="89" height="107.7"/>
			</defs>
			<clipPath id="SVGID_48_">
				<use xlink:href="#SVGID_47_"  style="overflow:visible;"/>
			</clipPath>
			<path class="st23" d="M23.1,67.8c0-2.7,1.8-4.9,4.1-4.9H40c2.3,0,4.1,2.2,4.1,4.9"/>
		</g>
		<g>
			<defs>
				<rect id="SVGID_49_" x="-10.9" y="-8.3" width="89" height="107.7"/>
			</defs>
			<clipPath id="SVGID_50_">
				<use xlink:href="#SVGID_49_"  style="overflow:visible;"/>
			</clipPath>
			<rect x="26.2" y="73.1" class="st24" width="14.9" height="5.5"/>
		</g>
		<g>
			<defs>
				<rect id="SVGID_51_" x="-10.9" y="-8.3" width="89" height="107.7"/>
			</defs>
			<clipPath id="SVGID_52_">
				<use xlink:href="#SVGID_51_"  style="overflow:visible;"/>
			</clipPath>
			<g class="st25">
			</g>
		</g>
		<g>
			<defs>
				<rect id="SVGID_53_" x="-10.9" y="-8.3" width="89" height="107.7"/>
			</defs>
			<clipPath id="SVGID_54_">
				<use xlink:href="#SVGID_53_"  style="overflow:visible;"/>
			</clipPath>
			<path class="st26" d="M35.7,61.8c0-5.9,2.1-12.1,3.4-12.8"/>
		</g>
		<g>
			<defs>
				<rect id="SVGID_55_" x="-10.9" y="-8.3" width="89" height="107.7"/>
			</defs>
			<clipPath id="SVGID_56_">
				<use xlink:href="#SVGID_55_"  style="overflow:visible;"/>
			</clipPath>
			<path class="st27" d="M31.5,61.8c0-5.9-2.1-12.1-3.4-12.8"/>
		</g>
		<g>
			<defs>
				<rect id="SVGID_57_" x="-10.9" y="-8.3" width="89" height="107.7"/>
			</defs>
			<clipPath id="SVGID_58_">
				<use xlink:href="#SVGID_57_"  style="overflow:visible;"/>
			</clipPath>
		</g>
		<g>
			<defs>
				<rect id="SVGID_59_" x="-10.9" y="-8.3" width="89" height="107.7"/>
			</defs>
			<clipPath id="SVGID_60_">
				<use xlink:href="#SVGID_59_"  style="overflow:visible;"/>
			</clipPath>
			<path class="st28" d="M83.2-73.3H-16c-1.7,0-3.1-1.4-3.1-3.2v-59.7c0-1.8,1.4-3.2,3.1-3.2h99.2c1.7,0,3.1,1.4,3.1,3.2v59.7
				C86.3-74.8,84.9-73.3,83.2-73.3z"/>
		</g>
		<g>
			<defs>
				<rect id="SVGID_61_" x="-10.9" y="-8.3" width="89" height="107.7"/>
			</defs>
			<clipPath id="SVGID_62_">
				<use xlink:href="#SVGID_61_"  style="overflow:visible;"/>
			</clipPath>
			<line class="st29" x1="-13" y1="-85" x2="80.2" y2="-85"/>
		</g>
		<g>
			<defs>
				<rect id="SVGID_63_" x="-10.9" y="-8.3" width="89" height="107.7"/>
			</defs>
			<clipPath id="SVGID_64_">
				<use xlink:href="#SVGID_63_"  style="overflow:visible;"/>
			</clipPath>
			<path class="st30" d="M46.9-69.2l1.5,6.2l2,1.3c1.7,1.1,1,3.8-1.1,3.8H17.9c-2,0-2.8-2.7-1.1-3.8l2-1.3l1.5-6.2"/>
		</g>
		<g>
			<defs>
				<rect id="SVGID_65_" x="-10.9" y="-8.3" width="89" height="107.7"/>
			</defs>
			<clipPath id="SVGID_66_">
				<use xlink:href="#SVGID_65_"  style="overflow:visible;"/>
			</clipPath>
			<line class="st31" x1="23" y1="-63.5" x2="44.2" y2="-63.5"/>
		</g>
		<g>
			<defs>
				<rect id="SVGID_67_" x="-10.9" y="-8.3" width="89" height="107.7"/>
			</defs>
			<clipPath id="SVGID_68_">
				<use xlink:href="#SVGID_67_"  style="overflow:visible;"/>
			</clipPath>
			<ellipse class="st32" cx="33.6" cy="-112.7" rx="19.7" ry="20"/>
		</g>
		<g>
			<defs>
				<rect id="SVGID_69_" x="-10.9" y="-8.3" width="89" height="107.7"/>
			</defs>
			<clipPath id="SVGID_70_">
				<use xlink:href="#SVGID_69_"  style="overflow:visible;"/>
			</clipPath>
			<ellipse class="st33" cx="33.6" cy="-112.7" rx="12.7" ry="12.9"/>
		</g>
		<g>
			<defs>
				<rect id="SVGID_71_" x="-10.9" y="-8.3" width="89" height="107.7"/>
			</defs>
			<clipPath id="SVGID_72_">
				<use xlink:href="#SVGID_71_"  style="overflow:visible;"/>
			</clipPath>
			<line class="st34" x1="18.6" y1="-99.7" x2="24" y2="-104.3"/>
		</g>
		<g>
			<defs>
				<rect id="SVGID_73_" x="-10.9" y="-8.3" width="89" height="107.7"/>
			</defs>
			<clipPath id="SVGID_74_">
				<use xlink:href="#SVGID_73_"  style="overflow:visible;"/>
			</clipPath>
			<path class="st35" d="M21.6-108.5c-3.1,1.1-6.7,2.3-6.7,2.3"/>
		</g>
		<g>
			<defs>
				<rect id="SVGID_75_" x="-10.9" y="-8.3" width="89" height="107.7"/>
			</defs>
			<clipPath id="SVGID_76_">
				<use xlink:href="#SVGID_75_"  style="overflow:visible;"/>
			</clipPath>
			<path class="st36" d="M24.1-121.1c-2.4-2.2-5.3-4.7-5.3-4.7"/>
		</g>
		<g>
			<defs>
				<rect id="SVGID_77_" x="-10.9" y="-8.3" width="89" height="107.7"/>
			</defs>
			<clipPath id="SVGID_78_">
				<use xlink:href="#SVGID_77_"  style="overflow:visible;"/>
			</clipPath>
			<line class="st37" x1="15" y1="-119.4" x2="21.7" y2="-117"/>
		</g>
		<g>
			<defs>
				<rect id="SVGID_79_" x="-10.9" y="-8.3" width="89" height="107.7"/>
			</defs>
			<clipPath id="SVGID_80_">
				<use xlink:href="#SVGID_79_"  style="overflow:visible;"/>
			</clipPath>
			<line class="st38" x1="30" y1="-132.3" x2="31.3" y2="-125.3"/>
		</g>
		<g>
			<defs>
				<rect id="SVGID_81_" x="-10.9" y="-8.3" width="89" height="107.7"/>
			</defs>
			<clipPath id="SVGID_82_">
				<use xlink:href="#SVGID_81_"  style="overflow:visible;"/>
			</clipPath>
			<path class="st39" d="M36.1-125.3c0.6-3.2,1.4-7,1.4-7"/>
		</g>
		<g>
			<defs>
				<rect id="SVGID_83_" x="-10.9" y="-8.3" width="89" height="107.7"/>
			</defs>
			<clipPath id="SVGID_84_">
				<use xlink:href="#SVGID_83_"  style="overflow:visible;"/>
			</clipPath>
			<line class="st40" x1="48.6" y1="-125.7" x2="43.3" y2="-121"/>
		</g>
		<g>
			<defs>
				<rect id="SVGID_85_" x="-10.9" y="-8.3" width="89" height="107.7"/>
			</defs>
			<clipPath id="SVGID_86_">
				<use xlink:href="#SVGID_85_"  style="overflow:visible;"/>
			</clipPath>
			<path class="st41" d="M45.6-116.8c3.1-1.1,6.7-2.3,6.7-2.3"/>
		</g>
		<g>
			<defs>
				<rect id="SVGID_87_" x="-10.9" y="-8.3" width="89" height="107.7"/>
			</defs>
			<clipPath id="SVGID_88_">
				<use xlink:href="#SVGID_87_"  style="overflow:visible;"/>
			</clipPath>
			<line class="st42" x1="52.3" y1="-106.1" x2="45.6" y2="-108.4"/>
		</g>
		<g>
			<defs>
				<rect id="SVGID_89_" x="-10.9" y="-8.3" width="89" height="107.7"/>
			</defs>
			<clipPath id="SVGID_90_">
				<use xlink:href="#SVGID_89_"  style="overflow:visible;"/>
			</clipPath>
			<path class="st43" d="M43.2-104.2c2.5,2.2,5.3,4.7,5.3,4.7"/>
		</g>
		<g>
			<defs>
				<rect id="SVGID_91_" x="-10.9" y="-8.3" width="89" height="107.7"/>
			</defs>
			<clipPath id="SVGID_92_">
				<use xlink:href="#SVGID_91_"  style="overflow:visible;"/>
			</clipPath>
			<line class="st44" x1="37.4" y1="-93" x2="36" y2="-100"/>
		</g>
		<g>
			<defs>
				<rect id="SVGID_93_" x="-10.9" y="-8.3" width="89" height="107.7"/>
			</defs>
			<clipPath id="SVGID_94_">
				<use xlink:href="#SVGID_93_"  style="overflow:visible;"/>
			</clipPath>
			<path class="st45" d="M31.3-100c-0.6,3.2-1.3,7-1.3,7"/>
		</g>
		<g>
			<defs>
				<rect id="SVGID_95_" x="-10.9" y="-8.3" width="89" height="107.7"/>
			</defs>
			<clipPath id="SVGID_96_">
				<use xlink:href="#SVGID_95_"  style="overflow:visible;"/>
			</clipPath>
			<path class="st46" d="M28.3-111H36c2.6,0,4.7-2.1,4.7-4.7s-2.1-4.7-4.7-4.7h-3.9c-0.8,0-1.4,0.6-1.4,1.4v14.2"/>
		</g>
		<g>
			<defs>
				<rect id="SVGID_97_" x="-10.9" y="-8.3" width="89" height="107.7"/>
			</defs>
			<clipPath id="SVGID_98_">
				<use xlink:href="#SVGID_97_"  style="overflow:visible;"/>
			</clipPath>
			<line class="st47" x1="28.3" y1="-107.8" x2="35.8" y2="-107.8"/>
		</g>
		<g>
			<defs>
				<rect id="SVGID_99_" x="-10.9" y="-8.3" width="89" height="107.7"/>
			</defs>
			<clipPath id="SVGID_100_">
				<use xlink:href="#SVGID_99_"  style="overflow:visible;"/>
			</clipPath>
			<path class="st48" d="M33.6-77.5L32-76.6c-0.1,0.1-0.2,0-0.2-0.2l0.3-1.8v-0.1L30.8-80c-0.1-0.1,0-0.2,0.1-0.3l1.8-0.3
				c0,0,0.1,0,0.1-0.1l0.8-1.6c0.1-0.1,0.2-0.1,0.3,0l0.8,1.6l0.1,0.1l1.8,0.3c0.1,0,0.2,0.2,0.1,0.3l-1.3,1.3c0,0-0.1,0.1,0,0.1
				l0.3,1.8c0,0.1-0.1,0.2-0.2,0.2l-1.6-0.8C33.7-77.5,33.6-77.5,33.6-77.5"/>
		</g>
		<g>
			<defs>
				<rect id="SVGID_101_" x="-10.9" y="-8.3" width="89" height="107.7"/>
			</defs>
			<clipPath id="SVGID_102_">
				<use xlink:href="#SVGID_101_"  style="overflow:visible;"/>
			</clipPath>
			<path class="st49" d="M31.7,220.9c-2.4-1-11-4.9-18.9-15.8c-10-13.6-15.1-32.4-15.3-55.7v-4.9l4.8-0.3
				c16.6-1.1,25.7-7.4,28.1-9.3l1.6-1.3c0.9-0.7,2.2-0.7,3.1,0l1.6,1.3c2.4,1.9,11.5,8.2,28.1,9.3l4.8,0.3v4.9
				c-0.1,17-3.2,40.9-16.9,57.9c-7.5,9.3-15.2,12.8-17.4,13.6l-0.9,0.4c-0.5,0.2-1.3,0.2-1.8,0L31.7,220.9z"/>
		</g>
		<g>
			<defs>
				<rect id="SVGID_103_" x="-10.9" y="-8.3" width="89" height="107.7"/>
			</defs>
			<clipPath id="SVGID_104_">
				<use xlink:href="#SVGID_103_"  style="overflow:visible;"/>
			</clipPath>
			<path class="st50" d="M45.8,207.3c1-1,2-2.2,3-3.4c12.7-15.7,15.6-38.1,15.7-54.6c-4.4-0.3-19-1.8-29.5-9.3
				c-0.8-0.6-2.1-0.6-2.9,0c-10.6,7.5-25.1,9-29.5,9.3c0.3,31.2,9.7,48.3,18.2,57.4c5.9,6.3,11.3,8.7,12.8,9.3"/>
		</g>
		<g>
			<defs>
				<rect id="SVGID_105_" x="-10.9" y="-8.3" width="89" height="107.7"/>
			</defs>
			<clipPath id="SVGID_106_">
				<use xlink:href="#SVGID_105_"  style="overflow:visible;"/>
			</clipPath>
			<path class="st51" d="M33.5,203.3l-1.8,0.9c-0.1,0.1-0.3,0-0.2-0.2l0.3-2c0-0.1,0-0.1,0-0.2l-1.4-1.4c-0.1-0.1,0-0.3,0.1-0.3
				l2-0.3c0.1,0,0.1,0,0.1-0.1l0.9-1.8c0.1-0.1,0.2-0.1,0.3,0l0.9,1.8l0.1,0.1l2,0.3c0.1,0,0.2,0.2,0.1,0.3l-1.4,1.4
				c0,0-0.1,0.1,0,0.2l0.3,2c0,0.1-0.1,0.2-0.2,0.2l-1.8-0.9C33.6,203.3,33.5,203.3,33.5,203.3"/>
		</g>
		<g>
			<defs>
				<rect id="SVGID_107_" x="-10.9" y="-8.3" width="89" height="107.7"/>
			</defs>
			<clipPath id="SVGID_108_">
				<use xlink:href="#SVGID_107_"  style="overflow:visible;"/>
			</clipPath>
			<ellipse class="st52" cx="33.6" cy="201.6" rx="5.5" ry="5.6"/>
		</g>
		<g>
			<defs>
				<rect id="SVGID_109_" x="-10.9" y="-8.3" width="89" height="107.7"/>
			</defs>
			<clipPath id="SVGID_110_">
				<use xlink:href="#SVGID_109_"  style="overflow:visible;"/>
			</clipPath>
			<path class="st53" d="M38.9,155.2c5.4,2.2,9.3,7.5,9.3,13.8v13.4c-3.9,0-7.7,6.6-12.3,6.6v-15.8l8.2-0.9v-4.7l-10.5,2.2
				l-10.5-2.2v4.7l8.2,0.9V189c-4.5,0-7.2-6.6-12.3-6.6V169c0-6.3,3.8-11.6,9.3-13.8"/>
		</g>
		<g>
			<defs>
				<rect id="SVGID_111_" x="-10.9" y="-8.3" width="89" height="107.7"/>
			</defs>
			<clipPath id="SVGID_112_">
				<use xlink:href="#SVGID_111_"  style="overflow:visible;"/>
			</clipPath>
			<path class="st54" d="M30.3,148.5c0,0,1.7,5.1,1.7,9.4h3.3c0-4.3,1.7-9.4,1.7-9.4s-1.8-0.6-3.3-0.6
				C32.1,147.9,30.3,148.5,30.3,148.5z"/>
		</g>
	</g>
</g>
</svg>
