<?xml version="1.0" encoding="utf-8"?>
<!-- Generator: Adobe Illustrator 22.0.1, SVG Export Plug-In . SVG Version: 6.00 Build 0)  -->
<svg version="1.1" id="Слой_1" xmlns="http://www.w3.org/2000/svg" xmlns:xlink="http://www.w3.org/1999/xlink" x="0px" y="0px"
	 viewBox="0 0 90.6 90.9" style="enable-background:new 0 0 90.6 90.9;" xml:space="preserve">
<style type="text/css">
	.st0{fill:none;stroke:#000000;stroke-width:1.624;stroke-linejoin:round;stroke-miterlimit:10;}
</style>
<g>
	<g>
		<polygon class="st0" points="29.3,72.5 18.3,61.6 78.8,1.1 89.8,0.9 89.7,12 		"/>
		<line class="st0" x1="84.4" y1="6.4" x2="23.8" y2="67"/>
	</g>
	<polyline class="st0" points="15.1,53.3 15.1,58.3 32.8,76 37.5,75.7 	"/>
	<g>
		<line class="st0" x1="27.2" y1="70.4" x2="9.5" y2="88"/>
		<line class="st0" x1="2.7" y1="81.3" x2="20.4" y2="63.6"/>
	</g>
	<polygon class="st0" points="10.4,89.9 0.8,89.9 0.8,80.4 7.4,83.3 	"/>
	<polyline class="st0" points="6.9,77.1 11.7,79.2 13.7,83.8 	"/>
	<polyline class="st0" points="11.1,72.9 15.9,75 18,79.6 	"/>
	<polyline class="st0" points="15.3,68.6 20.1,70.8 22.2,75.4 	"/>
	<line class="st0" x1="50.8" y1="50.8" x2="66.9" y2="66.9"/>
	<line class="st0" x1="45.4" y1="56.3" x2="61.5" y2="72.4"/>
	<line class="st0" x1="56.3" y1="45.4" x2="72.4" y2="61.5"/>
	<line class="st0" x1="6.3" y1="6.3" x2="39.9" y2="39.9"/>
	<polyline class="st0" points="53.3,75.7 58.2,75.7 76,57.9 75.7,53.3 	"/>
	<g>
		<line class="st0" x1="70.3" y1="63.5" x2="88" y2="81.2"/>
		<line class="st0" x1="81.2" y1="88" x2="63.5" y2="70.3"/>
	</g>
	<polygon class="st0" points="89.8,80.4 89.8,89.9 80.3,89.9 83.3,83.3 	"/>
	<polyline class="st0" points="34.5,45.4 1.1,12 0.8,0.9 12,1 45.3,34.4 	"/>
	<polyline class="st0" points="77.1,84 79.3,79.3 83.9,77.2 	"/>
	<polyline class="st0" points="72.9,79.8 75.1,75 79.7,72.9 	"/>
	<polyline class="st0" points="68.7,75.6 70.9,70.8 75.5,68.7 	"/>
</g>
<g>
</g>
</svg>
