<?xml version="1.0" encoding="utf-8"?>
<!-- Generator: Adobe Illustrator 22.0.1, SVG Export Plug-In . SVG Version: 6.00 Build 0)  -->
<svg version="1.1" id="Слой_1" xmlns="http://www.w3.org/2000/svg" xmlns:xlink="http://www.w3.org/1999/xlink" x="0px" y="0px"
	 viewBox="0 0 60 60" style="enable-background:new 0 0 60 60;" xml:space="preserve">
<style type="text/css">
	.st0{fill:#FFFFFF;}
</style>
<g>
	<g>
		<path class="st0" d="M58.2,19.8C54,8.3,43,0,30,0S6,8.3,1.8,19.8C0.6,23,0,26.4,0,30c0,3.1,0.5,6.1,1.4,9C5.2,51.1,16.6,60,30,60
			s24.8-8.9,28.6-21c0.9-2.8,1.4-5.8,1.4-9C60,26.4,59.4,23,58.2,19.8 M30,57.1c-12.1,0-22.4-8-25.9-19c-0.8-2.6-1.3-5.3-1.3-8.2
			c0-3.3,0.6-6.4,1.6-9.3C8.3,10.3,18.3,2.9,30,2.9s21.7,7.5,25.5,17.9c1.1,2.9,1.6,6,1.6,9.3c0,2.8-0.4,5.6-1.3,8.2
			C52.4,49.1,42.1,57.1,30,57.1"/>
	</g>
	<path class="st0" d="M40.1,34.2c-0.8-0.7,0.4-3.4,0.4-3.4s2.5-3.8,0.2-9.9C38.5,14.8,30,14.8,30,14.8s-8.5,0-10.8,6.1
		c-2.2,6.1,0.2,9.9,0.2,9.9s1.2,2.7,0.4,3.4c-0.8,0.7-1.2,1.8-1.1,2.4c0.1,0.7,0.3,1.9,1.7,2.4c1.4,0.5,4.1,0.2,4.4,3.2
		c0.4,3,0.9,2.8,5.1,3c4.1-0.1,4.7,0.1,5.1-3c0.4-3,3.1-2.7,4.4-3.2c1.4-0.5,1.5-1.8,1.7-2.4C41.3,35.9,40.9,34.8,40.1,34.2z
		 M27.9,32.8c-0.2,3.4-4,3.3-5,3.4s-2.3-0.9-1.7-3.4c0.7-2.5,3-2.3,4.9-2.3C28,30.6,27.9,32.8,27.9,32.8z M31.2,40.8
		c-1,0.2-1.2-0.9-1.2-0.9s-0.2,1.1-1.2,0.9c-1-0.2-0.7-1.8-0.5-2.8s1.1-2.7,1.7-2.8c0.5,0.1,1.4,1.8,1.7,2.8
		C31.9,39,32.2,40.6,31.2,40.8z M37,36.2c-1,0-4.7,0.1-5-3.4c0,0-0.1-2.2,1.8-2.3c1.8,0,4.2-0.2,4.9,2.3S38,36.2,37,36.2z"/>
</g>
</svg>
