<?xml version="1.0" encoding="utf-8"?>
<!-- Generator: Adobe Illustrator 22.0.1, SVG Export Plug-In . SVG Version: 6.00 Build 0)  -->
<svg version="1.1" id="Слой_1" xmlns="http://www.w3.org/2000/svg" xmlns:xlink="http://www.w3.org/1999/xlink" x="0px" y="0px"
	 viewBox="0 0 60.1 60" style="enable-background:new 0 0 60.1 60;" xml:space="preserve">
<style type="text/css">
	.st0{fill:#FFFFFF;}
</style>
<g>
	<g>
		<path class="st0" d="M58.3,19.8C54.1,8.3,43,0,30.1,0C17.1,0,6,8.3,1.9,19.8C0.7,23,0.1,26.4,0.1,30c0,3.1,0.5,6.1,1.4,9
			c3.8,12.2,15.2,21,28.6,21s24.8-8.9,28.6-21c0.9-2.8,1.4-5.8,1.4-9C60.1,26.4,59.4,23,58.3,19.8 M30.1,57.1
			c-12.1,0-22.4-8-25.9-19c-0.8-2.6-1.3-5.3-1.3-8.2c0-3.3,0.6-6.4,1.6-9.3C8.4,10.3,18.4,2.9,30.1,2.9s21.7,7.5,25.5,17.9
			c1.1,2.9,1.6,6,1.6,9.3c0,2.8-0.4,5.6-1.3,8.2C52.5,49.1,42.2,57.1,30.1,57.1"/>
	</g>
	<polygon class="st0" points="40.4,4.6 21.1,19.9 32.3,20.8 20.3,30.7 31.4,31.7 16.7,45.5 45.1,28.6 35.5,27.8 46.5,18.9 
		38.2,18.3 50.5,8.5 	"/>
</g>
</svg>
