<?xml version="1.0" encoding="utf-8"?>
<!-- Generator: Adobe Illustrator 22.0.1, SVG Export Plug-In . SVG Version: 6.00 Build 0)  -->
<svg version="1.1" id="Слой_1" xmlns="http://www.w3.org/2000/svg" xmlns:xlink="http://www.w3.org/1999/xlink" x="0px" y="0px"
	 viewBox="0 0 89.6 90.6" style="enable-background:new 0 0 89.6 90.6;" xml:space="preserve">
<style type="text/css">
	.st0{fill:none;stroke:#000000;stroke-width:1.624;stroke-linejoin:round;stroke-miterlimit:10;}
</style>
<g>
	<g>
		<path class="st0" d="M29.1,39.4l22.1,22.1c0,0,2.1,2,5.5-0.1l24.8-18.5c0,0,12.2-10.7,5.2-20.9L69.1,4.5c0,0-8.3-8.8-17.3,1.5
			l-4.3,7.1L51.8,6c0,0-9.3-1.3-12.6,5.6C35.9,18.5,29.1,34,29.1,34S27.3,37.6,29.1,39.4z"/>
		<polyline class="st0" points="51.8,62 49.6,64.1 26.6,41.1 28.7,39 		"/>
		<path class="st0" d="M39.2,80.6c-0.4,0.4-1.2,0.4-1.6,0L10.2,53.3c-0.4-0.4-0.4-1.2,0-1.6L22.9,39c0.4-0.4,1.2-0.4,1.6,0
			l27.4,27.4c0.4,0.4,0.4,1.2,0,1.6L39.2,80.6z"/>
	</g>
	<g>
	</g>
</g>
</svg>
