<?xml version="1.0" encoding="utf-8"?>
<!-- Generator: Adobe Illustrator 22.0.1, SVG Export Plug-In . SVG Version: 6.00 Build 0)  -->
<svg version="1.1" id="Слой_1" xmlns="http://www.w3.org/2000/svg" xmlns:xlink="http://www.w3.org/1999/xlink" x="0px" y="0px"
	 viewBox="0 0 60 60" style="enable-background:new 0 0 60 60;" xml:space="preserve">
<style type="text/css">
	.st0{fill:#FFFFFF;}
</style>
<g>
	<g>
		<path class="st0" d="M30,0.1C13.5,0.1,0.1,13.5,0.1,30S13.5,59.9,30,59.9S59.9,46.5,59.9,30S46.5,0.1,30,0.1z M30,58.1
			c-12.5,0-23.1-8.2-26.8-19.5l9.6,4c0.7,3.9,4.2,6.9,8.3,6.9c4.7,0,8.4-3.8,8.4-8.4c0-0.2,0-0.3,0-0.5l0,0l9.8-7c0.1,0,0.2,0,0.3,0
			c6.1,0,11.1-4.9,11.1-11.1c0-6.1-4.9-11.1-11.1-11.1s-11.1,4.9-11.1,11.1l0,0l-6.9,10.1c-0.2,0-0.4,0-0.6,0
			c-1.8,0-3.5,0.6-4.8,1.5l-14.3-6C2.9,13.5,15.1,1.9,30,1.9c15.5,0,28.1,12.6,28.1,28.1S45.5,58.1,30,58.1z M18.9,35.3
			c0.7-0.3,1.4-0.4,2.2-0.4c3.4,0,6.2,2.8,6.2,6.2s-2.8,6.2-6.2,6.2c-2.5,0-4.7-1.5-5.6-3.6c1.4,0.6,4,1.9,5.5,1.9
			c2.5,0,4.6-2.1,4.6-4.6C25.6,37.1,21.8,36.5,18.9,35.3z M32.4,22.6c0-4,3.3-7.3,7.3-7.3s7.3,3.3,7.3,7.3s-3.3,7.3-7.3,7.3
			S32.4,26.6,32.4,22.6z"/>
		<circle class="st0" cx="39.7" cy="22.6" r="5.6"/>
	</g>
	<g>
		<path class="st0" d="M58.2,19.8C54,8.3,43,0,30,0S6,8.3,1.8,19.8C0.6,23,0,26.4,0,30c0,3.1,0.5,6.1,1.4,9C5.2,51.1,16.6,60,30,60
			s24.8-8.9,28.6-21c0.9-2.8,1.4-5.8,1.4-9C60,26.4,59.4,23,58.2,19.8 M30,57.1c-12.1,0-22.4-8-25.9-19c-0.8-2.6-1.3-5.3-1.3-8.2
			c0-3.3,0.6-6.4,1.6-9.3C8.3,10.3,18.3,2.9,30,2.9s21.7,7.5,25.5,17.9c1.1,2.9,1.6,6,1.6,9.3c0,2.8-0.4,5.6-1.3,8.2
			C52.4,49.1,42.1,57.1,30,57.1"/>
	</g>
</g>
</svg>
